<svg width="200" height="58" viewBox="0 0 200 58" fill="none" xmlns="http://www.w3.org/2000/svg">
<g clip-path="url(#clip0_7277_11359)">
<path fill-rule="evenodd" clip-rule="evenodd" d="M17.3608 53.9215L17.9223 54.9335C18.0618 55.1233 18.2189 55.2968 18.3908 55.4506C19.1101 36.9262 32.5462 21.9331 49.5681 20.2786C47.3017 17.9085 42.3475 19.0168 34.2209 18.8834C33.1178 13.8749 35.0874 4.49998 33.411 1.86296C31.8181 -0.642368 29.2472 0.104224 25.5554 0.10378C21.0156 0.10378 17.1787 -0.6335 17.0602 4.65471C16.9682 8.75253 17.4235 15.0438 16.9505 18.6961C15.3829 19.3739 7.07179 18.7408 4.59489 18.9189C-0.108897 19.2569 0.0685413 23.4516 0.0737542 28.1544C0.07616 30.3126 -0.28673 33.0921 0.575794 34.9052C3.06333 40.1331 10.5812 36.4473 16.9113 37.8303C17.6946 41.7453 16.322 50.6388 17.3608 53.9215Z" fill="#3E5EA9"/>
<path fill-rule="evenodd" clip-rule="evenodd" d="M52.0616 24.034C51.0907 21.9573 43.1281 24.1962 41.643 24.7546C33.6946 27.7421 27.0354 34.6141 23.8341 43.705C22.8487 46.5043 21.1098 53.6907 21.7905 55.7352C22.3791 55.9801 26.1386 56.2409 26.9649 56.0429C27.5845 55.6087 27.3353 51.1018 28.9407 46.779C30.2158 43.3429 31.5207 40.7633 34.1674 37.7361C36.8014 34.726 39.3453 32.9276 42.3898 31.5521C44.7324 30.4945 48.4509 29.7607 50.4208 29.9315C50.6843 30.6767 50.4557 32.5009 50.5591 33.3705C49.6561 33.7919 48.1254 33.711 47.0263 33.9224C38.9073 35.4935 32.4339 42.6014 30.9181 51.8675C30.05 57.184 30.4464 56.2557 33.3349 56.4527C34.2895 56.5177 35.2429 56.7165 36.0491 56.4428C36.5402 55.0634 36.4215 53 37.1461 50.8492C37.8001 48.9042 38.6809 47.1104 40.147 45.3255C42.6092 42.3276 47.5216 39.5818 50.1583 40.4168C50.2363 41.4241 50.1903 43.1926 49.9798 43.8831C47.5058 44.5933 45.2569 44.4379 42.4315 47.8683C40.4744 50.2468 39.0151 54.7024 39.5198 56.8489C42.6619 57.2632 42.1484 57.0657 44.9071 56.9338C45.6729 53.1918 47.0573 50.8578 49.9547 50.4412C50.1263 53.1525 50.2769 55.0006 50.5071 56.2706C51.1611 59.8778 51.4049 54.753 51.2372 48.9119C51.2182 48.2456 51.2769 47.3403 50.9643 47.4281C47.4367 48.4314 44.2144 49.8957 43.581 55.2754C43.536 55.6587 42.6551 55.4694 40.7863 55.3211C41.2028 50.8842 43.7816 47.151 47.7244 45.8757C49.1172 45.4245 50.0727 45.7263 51.0993 45.3026C51.5191 44.3504 51.6887 39.8272 51.2205 38.9629C50.097 38.5554 47.5467 38.981 45.9566 39.506C41.9329 40.8325 38.419 44.2827 36.5525 48.6677C35.0854 52.1122 35.3557 53.7863 34.8993 54.9864C34.8432 54.9953 34.7198 54.9571 34.7307 55.0081C34.7408 55.0574 34.6014 55.0246 34.564 55.0263L33.3927 54.9988C32.7783 54.9578 32.4932 54.9789 31.918 54.8006C31.6907 53.0942 32.7003 49.4277 33.5218 47.3353C36.1755 40.5731 41.742 36.0647 48.1157 35.2319C49.1928 35.0913 50.5399 35.2255 51.4128 34.9302C51.9253 34.0178 52.0801 29.5555 51.6302 28.6396C50.2405 27.9246 45.5203 28.8916 43.1736 29.6921C36.7288 31.8908 31.1278 37.8355 28.2499 44.9193C26.6298 48.9069 26.6927 50.877 26.0616 54.5504L23.0231 54.4595C22.7136 51.9692 24.1712 46.2412 25.3589 43.2847C29.8615 32.0815 39.452 24.7667 49.7906 24.7105C50.7546 24.7054 51.6653 25.1718 52.0611 24.0331L52.0616 24.034Z" fill="#92F8C9"/>
<path d="M67 54.646V21.8478H71.2951V35.8448H89.2609V21.8478H93.556V54.646H89.2609V39.8637H71.2951V54.646H67ZM111.056 55.108C107.7 55.108 104.913 53.9685 102.696 51.6895C100.51 49.4106 99.4171 46.5465 99.4171 43.0973C99.4171 39.6174 100.479 36.7533 102.604 34.5052C104.759 32.2262 107.607 31.0867 111.148 31.0867C114.72 31.0867 117.521 32.3493 119.553 34.8746C121.586 37.4 122.478 40.495 122.232 44.1598H103.435C103.497 46.254 104.267 48.0094 105.744 49.426C107.222 50.8119 109.008 51.5047 111.102 51.5047C114.242 51.5047 116.475 50.2113 117.799 47.6244H121.863C121.277 49.7801 120.031 51.5663 118.121 52.983C116.213 54.3996 113.857 55.108 111.056 55.108ZM115.582 36.2605C114.319 35.1518 112.795 34.5975 111.009 34.5975C109.224 34.5975 107.623 35.1365 106.206 36.2143C104.821 37.2922 103.959 38.8937 103.62 41.0185H118.03C117.66 38.9244 116.844 37.3384 115.582 36.2605ZM137.478 55.108C134.276 55.108 131.581 53.9376 129.395 51.5971C127.241 49.2566 126.162 46.4234 126.162 43.0973C126.162 39.7713 127.241 36.9381 129.395 34.5975C131.581 32.2569 134.276 31.0867 137.478 31.0867C139.171 31.0867 140.741 31.4717 142.189 32.2416C143.666 32.9807 144.805 33.9354 145.607 35.1056V31.5487H149.578V54.646H145.607V51.0889C144.805 52.2593 143.666 53.2293 142.189 53.9992C140.741 54.7384 139.171 55.108 137.478 55.108ZM138.078 51.4585C140.357 51.4585 142.235 50.6578 143.713 49.0565C145.191 47.455 145.929 45.4686 145.929 43.0973C145.929 40.726 145.191 38.7396 143.713 37.1382C142.235 35.5368 140.357 34.7361 138.078 34.7361C135.769 34.7361 133.875 35.5368 132.398 37.1382C130.919 38.7396 130.181 40.726 130.181 43.0973C130.181 45.4686 130.919 47.455 132.398 49.0565C133.875 50.6578 135.769 51.4585 138.078 51.4585ZM157.054 54.646V20H161.026V54.646H157.054ZM178.069 55.108C174.867 55.108 172.173 53.9376 169.988 51.5971C167.832 49.2566 166.755 46.4234 166.755 43.0973C166.755 39.7713 167.832 36.9381 169.988 34.5975C172.173 32.2569 174.867 31.0867 178.069 31.0867C179.763 31.0867 181.334 31.4717 182.78 32.2416C184.258 32.9807 185.398 33.9354 186.198 35.1056V31.5487H190.17V54.646H186.198V51.0889C185.398 52.2593 184.258 53.2293 182.78 53.9992C181.334 54.7384 179.763 55.108 178.069 55.108ZM178.67 51.4585C180.948 51.4585 182.826 50.6578 184.305 49.0565C185.782 47.455 186.521 45.4686 186.521 43.0973C186.521 40.726 185.782 38.7396 184.305 37.1382C182.826 35.5368 180.948 34.7361 178.67 34.7361C176.361 34.7361 174.467 35.5368 172.989 37.1382C171.511 38.7396 170.772 40.726 170.772 43.0973C170.772 45.4686 171.511 47.455 172.989 49.0565C174.467 50.6578 176.361 51.4585 178.67 51.4585Z" fill="#3E5EA9"/>
</g>
<defs>
<clipPath id="clip0_7277_11359">
<rect width="200" height="57.4713" fill="white"/>
</clipPath>
</defs>
</svg>
